<?xml version="1.0" encoding="UTF-8"?>
<svg id="Layer_2" data-name="Layer 2" xmlns="http://www.w3.org/2000/svg" viewBox="0 0 1126.67 177.29">
  <g id="Layer_1-2" data-name="Layer 1">
    <g>
      <path d="M334.07,88.98c14.94,14.86,24.3,32.64,17.16,53.76-5.55,16.42-19.66,30.55-41.04,34.45l-310.19.09L.1.05l306.73.08c21.33,2.17,36.89,14.93,43.27,31.17,8.4,21.39.94,41.21-16.04,57.68ZM308.92,77.92c16.38-.03,24.97-21.58,23.42-31.4-2.13-13.47-12.62-24.93-28.26-24.93H21.22s.26,56.87.26,56.87l287.44-.54ZM308.95,155.4c16.41-.02,24.7-20.44,23.4-30.78-1.67-13.3-12.22-25.26-27.86-25.26l-282.98-.1v56.54s287.44-.4,287.44-.4Z"/>
      <path d="M1081.87,176.55l-299.13.74.25-21.64,291.53.14c16.71,0,29.17-10.02,30.64-25.94,1.38-14.95-10.15-30.56-27.98-30.56l-252.16.06c-28.42,0-50.52-19.65-51.91-47.66-1.2-24.16,18.14-51.21,46.76-51.26l296.75-.44.14,21.59-291.3-.06c-17.17,0-29.04,9.22-31.02,24.98-1.53,12.21,7.91,31.56,24.92,31.59l260.37.56c26.63.06,44.93,21.86,46.82,45.84,1.78,22.49-16.09,51.97-44.68,52.04Z"/>
      <path d="M742.59,51.33c-.49,30.78-25.5,48.2-52.72,48.14l-113.15-.25-.07,77.73-21.59-.07-.13-77.7-114.96.21c-27.66.05-50.64-20.37-50.79-48.96l-.26-50.33,21.03-.02.68,53.33c.19,14.58,15.54,25.07,29.49,25.06l255.45-.18c13.89,0,25.38-13.41,25.53-25.77l.64-52.49,21.65.12-.81,51.16Z"/>
    </g>
  </g>
</svg>