<?xml version="1.0" encoding="UTF-8"?>
<svg id="Layer_2" data-name="Layer 2" xmlns="http://www.w3.org/2000/svg" viewBox="0 0 962.84 150.9">
  <g id="Layer_1-2" data-name="Layer 1">
    <g>
      <path d="M701.29,132.4l261.47.2.04,18.31-257.97-.09c-24.74,0-42.56-20.64-42.54-43.99l.06-64.02c.02-21.47,16.99-42.5,40.61-42.53l259.89-.29-.17,18.32-259.35.12c-11.69,0-22.35,10.17-22.41,21.75l-.37,67.21c-.05,9.45,7.15,24.99,20.75,25Z"/>
      <path d="M632.07,43.69c-.41,26.2-21.71,41.03-44.87,40.98l-96.31-.21-.06,66.16-18.38-.06-.11-66.14-97.85.18c-23.55.04-43.1-17.34-43.23-41.67l-.22-42.84,17.9-.02.58,45.39c.16,12.41,13.23,21.34,25.1,21.33l217.43-.15c11.82,0,21.6-11.42,21.73-21.93l.55-44.68,18.43.1-.69,43.55Z"/>
      <path d="M284.44,75.76c12.45,12.6,20.68,27.76,14.53,45.75-4.77,13.95-16.71,26.01-34.94,29.32l-264.02.08L.09.05l261.08.06c18.17,1.83,31.38,12.73,36.83,26.52,7.22,18.27.65,35.03-13.56,49.13ZM262.94,66.33c13.94-.03,21.26-18.38,19.93-26.73-1.82-11.47-10.72-21.22-24.05-21.22H18.06s.22,48.41.22,48.41l244.66-.46ZM262.97,132.27c13.97-.02,21.03-17.4,19.92-26.2-1.43-11.32-10.4-21.5-23.71-21.5l-240.86-.08v48.13s244.66-.34,244.66-.34Z"/>
    </g>
  </g>
</svg>